<?xml version="1.0" encoding="UTF-8" standalone="no"?>
<!-- Generator: Adobe Illustrator 16.0.0, SVG Export Plug-In . SVG Version: 6.00 Build 0)  -->

<svg
   xmlns:osb="http://www.openswatchbook.org/uri/2009/osb"
   xmlns:dc="http://purl.org/dc/elements/1.1/"
   xmlns:cc="http://creativecommons.org/ns#"
   xmlns:rdf="http://www.w3.org/1999/02/22-rdf-syntax-ns#"
   xmlns:svg="http://www.w3.org/2000/svg"
   xmlns="http://www.w3.org/2000/svg"
   xmlns:sodipodi="http://sodipodi.sourceforge.net/DTD/sodipodi-0.dtd"
   xmlns:inkscape="http://www.inkscape.org/namespaces/inkscape"
   version="1.1"
   id="Capa_1"
   x="0px"
   y="0px"
   width="280"
   height="80"
   viewBox="0 0 280 80"
   xml:space="preserve"
   inkscape:version="0.91 r13725"
   sodipodi:docname="logo.svg"><metadata
     id="metadata41"><rdf:RDF><cc:Work
         rdf:about=""><dc:format>image/svg+xml</dc:format><dc:type
           rdf:resource="http://purl.org/dc/dcmitype/StillImage" /><dc:title></dc:title></cc:Work></rdf:RDF></metadata><defs
     id="defs39"><linearGradient
       id="linearGradient6134"
       osb:paint="solid"><stop
         style="stop-color:#f5db21;stop-opacity:1;"
         offset="0"
         id="stop6136" /></linearGradient><inkscape:perspective
       sodipodi:type="inkscape:persp3d"
       inkscape:vp_x="43.38983 : 30.372881 : 1"
       inkscape:vp_y="0 : 1000 : 0"
       inkscape:vp_z="38.237288 : 13.288136 : 1"
       inkscape:persp3d-origin="16 : 10.666667 : 1"
       id="perspective4266" /></defs><sodipodi:namedview
     pagecolor="#ffffff"
     bordercolor="#666666"
     borderopacity="1"
     objecttolerance="10"
     gridtolerance="10"
     guidetolerance="10"
     inkscape:pageopacity="0"
     inkscape:pageshadow="2"
     inkscape:window-width="1400"
     inkscape:window-height="768"
     id="namedview37"
     showgrid="false"
     inkscape:snap-global="false"
     fit-margin-top="0"
     fit-margin-left="0"
     fit-margin-right="0"
     fit-margin-bottom="0"
     inkscape:zoom="0.921875"
     inkscape:cx="-11.99758"
     inkscape:cy="66.737434"
     inkscape:window-x="257"
     inkscape:window-y="137"
     inkscape:window-maximized="0"
     inkscape:current-layer="g10110" /><g
     id="g7"
     transform="translate(-0.55269422,54.789981)" /><g
     id="g9"
     transform="translate(-0.55269422,54.789981)" /><g
     id="g11"
     transform="translate(-0.55269422,54.789981)" /><g
     id="g13"
     transform="translate(-0.55269422,54.789981)" /><g
     id="g15"
     transform="translate(-0.55269422,54.789981)" /><g
     id="g17"
     transform="translate(-0.55269422,54.789981)" /><g
     id="g19"
     transform="translate(-0.55269422,54.789981)" /><g
     id="g21"
     transform="translate(-0.55269422,54.789981)" /><g
     id="g23"
     transform="translate(-0.55269422,54.789981)" /><g
     id="g25"
     transform="translate(-0.55269422,54.789981)" /><g
     id="g27"
     transform="translate(-0.55269422,54.789981)" /><g
     id="g29"
     transform="translate(-0.55269422,54.789981)" /><g
     id="g31"
     transform="translate(-0.55269422,54.789981)" /><g
     id="g33"
     transform="translate(-0.55269422,54.789981)" /><g
     id="g35"
     transform="translate(-0.55269422,54.789981)" /><g
     inkscape:groupmode="layer"
     id="layer1"
     inkscape:label="Layer 1"
     transform="translate(-0.55269422,54.789981)"><rect
       style="opacity:1;fill:#2fc6fa;fill-opacity:1;fill-rule:nonzero"
       id="rect4298"
       width="56.568611"
       height="56.568611"
       x="-5.8246918"
       y="15.091612"
       transform="matrix(0.70710592,0.70710764,0.70710592,-0.70710764,0,0)"
       inkscape:transform-center-x="591.67945"
       inkscape:transform-center-y="-39.445398" /><g
       id="g10110"
       transform="translate(6,0)"><text
         sodipodi:linespacing="94.999999%"
         id="text6164"
         y="-4.4874034"
         x="86.445717"
         style="font-style:normal;font-variant:normal;font-weight:bold;font-stretch:normal;font-size:39.44931412px;line-height:94.99999881%;font-family:'Khmer UI';-inkscape-font-specification:'Khmer UI, Bold';text-align:start;letter-spacing:0px;word-spacing:0px;writing-mode:lr-tb;text-anchor:start;fill:#f41e4b;fill-opacity:1;stroke:none;stroke-width:1px;stroke-linecap:butt;stroke-linejoin:miter;stroke-opacity:1;"
         xml:space="preserve"><tspan
           style="font-style:normal;font-variant:normal;font-weight:bold;font-stretch:normal;font-size:39.44931412px;line-height:94.99999881%;font-family:'Khmer UI';-inkscape-font-specification:'Khmer UI, Bold';text-align:start;writing-mode:lr-tb;text-anchor:start;fill:#f41e4b;fill-opacity:1;"
           y="-4.4874034"
           x="86.445717"
           id="tspan6166"
           sodipodi:role="line">ngFitness</tspan></text>
</g></g><g
     inkscape:groupmode="layer"
     id="layer2"
     inkscape:label="Layer 2"
     transform="translate(-0.55269422,54.789981)"><g
       id="g3417"
       transform="matrix(0.14381461,0,0,0.14544247,24.598965,-36.992453)"
       style="fill:#ffffff;fill-opacity:1"><g
         id="g3371"
         style="fill:#ffffff;fill-opacity:1"><g
           id="g3373"
           style="fill:#ffffff;fill-opacity:1"><path
             id="path3375"
             d="m 91.699,44.068 c -5.181,-4.469 -11.91,-7.185 -19.286,-7.185 -16.329,0 -29.564,13.241 -29.564,29.567 0,4.427 1.002,8.616 2.747,12.386 C 58.378,64.341 74.042,52.441 91.699,44.068 Z"
             inkscape:connector-curvature="0"
             style="fill:#ffffff;fill-opacity:1" /><path
             id="path3377"
             d="m 152.656,305.308 c 72.993,0 132.169,-59.176 132.169,-132.167 0,-65.368 -47.463,-119.611 -109.808,-130.245 l 0,-5.375 0,-5.383 0,-14.014 11.465,0 c 3.79,0 6.866,-4.055 6.866,-9.062 C 193.348,4.058 190.272,0 186.482,0 l -67.658,0 c -3.795,0 -6.872,4.058 -6.872,9.062 0,5.007 3.076,9.062 6.872,9.062 l 11.459,0 0,14.009 0,5.383 0,5.375 c -11.131,1.9 -21.777,5.186 -31.771,9.683 C 80.435,60.703 64.523,72.761 51.86,87.682 32.305,110.724 20.481,140.54 20.481,173.136 20.487,246.132 79.663,305.308 152.656,305.308 Z M 74.79,95.899 c 7.438,-7.498 15.943,-13.93 25.277,-19.045 15.625,-8.57 33.546,-13.463 52.594,-13.463 60.52,0 109.748,49.234 109.748,109.75 0,60.518 -49.229,109.751 -109.748,109.751 -60.517,0 -109.75,-49.233 -109.75,-109.751 -0.005,-30.098 12.187,-57.394 31.879,-77.242 z"
             inkscape:connector-curvature="0"
             style="fill:#ffffff;fill-opacity:1" /><path
             id="path3379"
             d="m 86.296,239.499 c 4.246,4.246 8.898,8.088 13.888,11.459 2.496,1.683 5.08,3.257 7.736,4.696 13.297,7.224 28.536,11.33 44.731,11.33 2.025,0 4.034,-0.067 6.025,-0.197 9.963,-0.626 19.506,-2.812 28.387,-6.317 3.552,-1.397 7,-3.014 10.324,-4.82 2.662,-1.444 5.24,-3.009 7.736,-4.696 4.992,-3.377 9.642,-7.208 13.888,-11.46 16.984,-16.983 27.485,-40.44 27.485,-66.357 0,-25.914 -10.501,-49.378 -27.485,-66.36 -4.246,-4.248 -8.896,-8.085 -13.888,-11.459 -2.496,-1.686 -5.079,-3.254 -7.736,-4.699 -3.324,-1.807 -6.772,-3.412 -10.324,-4.818 -8.876,-3.5 -18.424,-5.69 -28.387,-6.319 -1.991,-0.13 -4,-0.192 -6.025,-0.192 -16.2,0 -31.434,4.104 -44.731,11.325 -2.662,1.444 -5.24,3.014 -7.736,4.699 -4.994,3.373 -9.647,7.21 -13.888,11.459 -16.984,16.981 -27.488,40.441 -27.488,66.36 0.005,25.925 10.509,49.382 27.488,66.366 z m 66.36,-141.037 0,70.309 -70.682,27.165 c -12.512,-48.74 21.702,-97.474 70.682,-97.474 z"
             inkscape:connector-curvature="0"
             style="fill:#ffffff;fill-opacity:1" /></g></g><g
         id="g3381"
         style="fill:#ffffff;fill-opacity:1" /><g
         id="g3383"
         style="fill:#ffffff;fill-opacity:1" /><g
         id="g3385"
         style="fill:#ffffff;fill-opacity:1" /><g
         id="g3387"
         style="fill:#ffffff;fill-opacity:1" /><g
         id="g3389"
         style="fill:#ffffff;fill-opacity:1" /><g
         id="g3391"
         style="fill:#ffffff;fill-opacity:1" /><g
         id="g3393"
         style="fill:#ffffff;fill-opacity:1" /><g
         id="g3395"
         style="fill:#ffffff;fill-opacity:1" /><g
         id="g3397"
         style="fill:#ffffff;fill-opacity:1" /><g
         id="g3399"
         style="fill:#ffffff;fill-opacity:1" /><g
         id="g3401"
         style="fill:#ffffff;fill-opacity:1" /><g
         id="g3403"
         style="fill:#ffffff;fill-opacity:1" /><g
         id="g3405"
         style="fill:#ffffff;fill-opacity:1" /><g
         id="g3407"
         style="fill:#ffffff;fill-opacity:1" /><g
         id="g3409"
         style="fill:#ffffff;fill-opacity:1" /></g></g></svg>